#!OML:ASF E:/inclinewalkrobotboard/Project1/Captureday1/Session1/subject1.ASF
:FULLY-SPECIFIED
:DEGREES
151
root 0 0 0 -1.4061886093615428 21.439166235155167 8.583373063136262
lowerback -4.0294741198906046 -6.06244857021491 -6.357650808801503
upperback -8.39204155794023 -7.507457367221502 6.9819923024766695
thorax -6.088268392321136 -2.6193911923296227 10.96778322862928
lowerneck -5.598714358413379 -8.875922845703714 -7.670976853988596
upperneck 32.220998837480366 -11.461497062374926 1.8776972026165366
head 12.137057414460074 -5.834618009037318 0.3689953741770585
rclavicle -3.724941323564265E-15 -2.428663570519625E-15
rhumerus -18.925143335926933 -26.938259264405616 -16.67921889560978
rradius 62.40330738545467
rwrist -12.266018528690743
rhand -26.618121566062705 32.3815082837498
rfingers 7.1250199999999655
rthumb -0.03386269002542619 1.6082783414154243
lclavicle 2.5577127463251633E-16 -3.865602562988074E-15
lhumerus 22.073445619360342 3.2509635054514736 42.68679763928873
lradius 63.86913629868994
lwrist -6.798652256714955
lhand -14.190721821664669 7.47334406553593
lfingers 7.125019999999965
lthumb 11.784125783167525 35.626331849193974
rfemur 139.17501227390875 -155.0478609660014 -120.50206222692535
rtibia 28.471584467400874
rfoot -13.931109365839607 -49.70664099676494
rtoes 4.582481868625276
lfemur -82.08631287536605 24.026326340210428 -57.0429558574514
ltibia 68.28456411052049
lfoot 12.495796755538688 31.967045463004148
ltoes 0.1089188761127442
152
root 0 0 0 -1.4043159280492503 21.436554609000776 8.582632642835145
lowerback -4.030708732610431 -6.062415472171237 -6.357485764471187
upperback -8.392578340850674 -7.507424788690074 6.982006954532922
thorax -6.088120628195997 -2.6194143951180804 10.96771712244319
lowerneck -5.598599097770427 -8.87582519541339 -7.67091510469479
upperneck 32.22165517543009 -11.461549024453744 1.8780927565096381
head 12.13731221502856 -5.834584686224451 0.3691282871641246
rclavicle -3.728361871261006E-15 -2.4310949333611444E-15
rhumerus -18.923611521958 -26.938139642945373 -16.677034800356473
rradius 62.40303352088708
rwrist -12.264975327470566
rhand -26.61853094608215 32.381166262615594
rfingers 7.1250199999999655
rthumb -0.0342452477159938 1.6077951675605995
lclavicle 2.406290039229021E-16 -3.8670693496512005E-15
lhumerus 22.130230785735847 3.2673419229345275 42.6201626392725
lradius 63.86289884168963
lwrist -6.830679855353239
lhand -14.165988870799737 7.473365630732616
lfingers 7.125019999999965
lthumb 11.807838154734947 35.62378609579745
rfemur 139.21692401666468 -155.08426387780287 -120.5420950709335
rtibia 28.474547789305177
rfoot -13.914636780222448 -49.733821597362045
rtoes 4.593970222388705
lfemur -82.08666268984396 24.027590086510543 -57.03487972709493
ltibia 68.29387667604992
lfoot 12.484022437444853 31.962267034627637
ltoes 0.11003538062870888
153
root 0 0 0 -1.4155394959241754 21.434458556354205 8.589209026916729
lowerback -4.022385978680778 -6.062175011532116 -6.359632760413688
upperback -8.389321761644338 -7.507185375270264 6.980812436610444
thorax -6.0898935795752935 -2.618840506310973 10.96763679687544
lowerneck -5.599292547345213 -8.874149255958844 -7.669504568828987
upperneck 32.21498744888755 -11.458684106772068 1.877903295102365
head 12.134631043928621 -5.833347726413335 0.3690353663083513
rclavicle -3.746773410608606E-15 -2.4372235390334674E-15
rhumerus -18.960251625541638 -26.938859438215715 -16.66951779119369
rradius 62.396722504113725
rwrist -12.25140389911899
rhand -26.619418674323892 32.38528905290604
rfingers 7.1250199999999655
rthumb -0.03508810621909575 1.6119007796937588
lclavicle 1.8648185033118066E-16 -3.88907868066631E-15
lhumerus 22.06109999204855 3.2732344503614197 42.76934749934322
lradius 63.85534343668864
lwrist -6.776196512012067
lhand -14.237530514611816 7.4707109634268924
lfingers 7.125019999999965
lthumb 11.739658782084069 35.631685411770746
rfemur 138.94523901356285 -154.80849366207244 -120.26606065076595
rtibia 28.424727900659697
rfoot -13.942218505318385 -49.625075262320536
rtoes 4.529475189766643
lfemur -82.09974164586806 24.014069855025312 -57.07329499620962
ltibia 68.20917431521488
lfoot 12.559827959149228 31.998152020915747
ltoes 0.12074617415986921
154
root 0 0 0 -1.4107181944680747 21.441629875897004 8.586813189240333
lowerback -4.026847975464539 -6.06246908977978 -6.359187851890874
upperback -8.390962591527959 -7.507486257584052 6.981620621803064
thorax -6.088808835924718 -2.6191625370891556 10.968247387155497
lowerneck -5.598681930863897 -8.87568961369686 -7.670695892545582
upperneck 32.21890745756035 -11.460848646436666 1.8772052413074511
head 12.13614098671296 -5.834395089506733 0.3688155768628568
rclavicle -3.7302351420009565E-15 -2.427378794828339E-15
rhumerus -18.938745198382236 -26.939276003404274 -16.67637045995297
rradius 62.39997878293547
rwrist -12.260629908950982
rhand -26.617652662490585 32.38235216198221
rfingers 7.1250199999999655
rthumb -0.033421511324768005 1.609214160987424
lclavicle 2.502975484747706E-16 -3.866950080451977E-15
lhumerus 22.03397537626665 3.259017064135603 42.76159299802542
lradius 63.864002084932665
lwrist -6.777016897496626
lhand -14.237064834736518 7.468906239379866
lfingers 7.125019999999965
lthumb 11.739925564758508 35.629087498355155
rfemur 139.0491090644119 -154.92501017811026 -120.37808694296791
rtibia 28.453035523503452
rfoot -13.952696288943713 -49.65412035828358
rtoes 4.555883916636354
lfemur -82.08518542941816 24.018540458099434 -57.07144857541185
ltibia 68.24932153459368
lfoot 12.523282440194489 31.987077727518468
ltoes 0.0998335341932961
